<svg width="351" height="86" viewBox="0 0 351 86" fill="none" xmlns="http://www.w3.org/2000/svg">
<mask id="path-1-inside-1_1980_216" fill="white">
<path d="M117.692 62.4432C117.692 56.6096 121.885 51.8698 127.901 51.8698C131.183 51.8698 133.37 52.9636 135.193 54.422C135.558 54.6043 135.74 54.9689 135.74 55.3335C135.74 56.0627 135.193 56.6096 134.464 56.6096C134.282 56.6096 133.917 56.4273 133.735 56.245C132.276 54.9689 130.453 53.8751 127.901 53.8751C123.343 53.8751 120.062 57.7034 120.062 62.2609V62.4432C120.062 67.0006 123.526 70.8289 127.901 70.8289C130.453 70.8289 132.276 69.9174 133.917 68.2767C134.1 68.0944 134.464 67.9121 134.647 67.9121C135.376 67.9121 135.74 68.459 135.74 69.0059C135.74 69.3705 135.558 69.7351 135.376 69.9174C133.37 71.7404 131.183 72.8342 127.901 72.8342C122.067 72.8342 117.692 68.2767 117.692 62.4432ZM163.998 62.4432C163.998 57.7034 160.534 53.8751 155.977 53.8751C151.237 53.8751 147.955 57.7034 147.955 62.2609V62.4432C147.955 67.0006 151.237 70.8289 155.977 70.8289C160.717 70.8289 163.998 67.0006 163.998 62.4432ZM145.585 62.4432C145.585 56.7919 149.778 51.8698 155.977 51.8698C162.175 51.8698 166.368 56.6096 166.368 62.2609V62.4432C166.368 67.9121 162.175 72.8342 155.977 72.8342C149.778 72.8342 145.585 68.0944 145.585 62.4432ZM177.854 64.0839V53.1459C177.854 52.599 178.401 52.0521 178.948 52.0521C179.677 52.0521 180.224 52.599 180.224 53.1459V63.9016C180.224 68.2767 182.594 70.8289 186.422 70.8289C190.068 70.8289 192.621 68.459 192.621 64.0839V53.1459C192.621 52.599 192.985 52.0521 193.715 52.0521C194.262 52.0521 194.808 52.599 194.808 53.1459V63.9016C194.808 69.7351 191.345 72.8342 186.422 72.8342C181.318 72.8342 177.854 69.7351 177.854 64.0839ZM207.206 53.1459C207.206 52.599 207.752 52.0521 208.482 52.0521H208.664C209.211 52.0521 209.576 52.4167 209.94 52.7813L222.337 68.459V53.1459C222.337 52.599 222.702 52.0521 223.431 52.0521C223.978 52.0521 224.525 52.599 224.525 53.1459V71.5581C224.525 72.105 223.978 72.6519 223.431 72.6519H223.249C222.884 72.6519 222.519 72.2873 222.155 71.9227L209.576 55.6981V71.5581C209.576 72.105 209.029 72.6519 208.299 72.6519C207.752 72.6519 207.206 72.105 207.206 71.5581V53.1459ZM242.573 54.2397H236.74C236.193 54.2397 235.646 53.8751 235.646 53.3282C235.646 52.599 236.193 52.2344 236.74 52.2344H250.96C251.507 52.2344 251.871 52.599 251.871 53.3282C251.871 53.8751 251.507 54.2397 250.96 54.2397H244.943V71.5581C244.943 72.105 244.397 72.6519 243.85 72.6519C243.12 72.6519 242.573 72.105 242.573 71.5581V54.2397ZM263.174 71.3758V53.3282C263.174 52.7813 263.721 52.2344 264.268 52.2344H276.848C277.577 52.2344 277.941 52.599 277.941 53.1459C277.941 53.8751 277.577 54.2397 276.848 54.2397H265.362V61.1671H275.571C276.118 61.1671 276.665 61.714 276.665 62.2609C276.665 62.8078 276.118 63.3547 275.571 63.3547H265.362V70.4643H277.03C277.577 70.4643 278.124 71.0112 278.124 71.5581C278.124 72.105 277.577 72.4696 277.03 72.4696H264.268C263.721 72.4696 263.174 72.105 263.174 71.3758ZM298.178 62.6255C301.277 62.6255 303.465 60.9848 303.465 58.4326V58.2503C303.465 55.8804 301.459 54.2397 298.178 54.2397H291.979V62.6255H298.178ZM289.609 53.3282C289.609 52.7813 290.156 52.2344 290.703 52.2344H298.36C300.912 52.2344 302.918 52.9636 304.194 54.2397C305.105 55.1512 305.652 56.6096 305.652 58.2503C305.652 61.714 303.465 63.537 300.365 64.2662L305.288 70.6466C305.652 71.0112 305.652 71.1935 305.652 71.5581C305.652 72.105 305.105 72.6519 304.559 72.6519C304.012 72.6519 303.829 72.4696 303.465 72.105L297.813 64.6307H291.979V71.5581C291.979 72.105 291.432 72.6519 290.703 72.6519C290.156 72.6519 289.609 72.105 289.609 71.5581V53.3282ZM81.4123 26.5302C84.5115 26.5302 86.6992 24.8895 86.6992 22.3373V22.155C86.6992 19.7851 84.6938 18.1444 81.4123 18.1444H75.0315V26.5302H81.4123ZM72.8438 17.2329C72.8438 16.5037 73.3907 16.1391 73.9376 16.1391H81.5946C84.1469 16.1391 86.1523 16.8683 87.4285 18.1444C88.34 19.0559 88.8869 20.5143 88.8869 22.155C88.8869 25.4364 86.6992 27.4417 83.4177 28.1709L88.5223 34.5514C88.8869 34.916 88.8869 35.0983 88.8869 35.4629C88.8869 36.0098 88.34 36.5567 87.7931 36.5567C87.2462 36.5567 86.8815 36.3744 86.6992 36.0098L81.0477 28.5355H75.0315V35.4629C75.0315 36.0098 74.6668 36.5567 73.9376 36.5567C73.3907 36.5567 72.8438 36.0098 72.8438 35.4629V17.2329ZM100.919 35.2806V17.2329C100.919 16.5037 101.466 16.1391 102.013 16.1391H114.593C115.322 16.1391 115.686 16.5037 115.686 17.0506C115.686 17.7798 115.322 18.1444 114.593 18.1444H103.107V25.0718H113.316C113.863 25.0718 114.41 25.6187 114.41 26.1656C114.41 26.7125 113.863 27.2594 113.316 27.2594H103.107V34.3691H114.775C115.322 34.3691 115.869 34.7337 115.869 35.4629C115.869 36.0098 115.322 36.3744 114.775 36.3744H102.013C101.466 36.3744 100.919 35.8275 100.919 35.2806ZM126.625 34.0045C126.443 33.8222 126.26 33.4576 126.26 33.093C126.26 32.5461 126.625 31.9992 127.354 31.9992C127.536 31.9992 127.901 32.1815 127.901 32.1815C129.906 33.8222 131.912 34.7337 134.464 34.7337C137.199 34.7337 139.022 33.2753 139.022 31.27V31.0877C139.022 29.2647 137.928 28.1709 133.735 27.2594C128.995 26.1656 126.807 24.7072 126.807 21.4258V21.2435C126.807 18.1444 129.724 15.7745 133.553 15.7745C136.287 15.7745 138.11 16.5037 139.933 17.7798C140.298 17.9621 140.48 18.3267 140.48 18.6913C140.48 19.2382 139.933 19.7851 139.387 19.7851C139.204 19.7851 139.022 19.7851 138.657 19.6028C137.017 18.3267 135.376 17.7798 133.553 17.7798C130.818 17.7798 129.177 19.2382 129.177 21.0612V21.2435C129.177 23.0665 130.089 24.1603 134.647 25.0718C139.204 26.1656 141.21 27.8063 141.21 30.9054C141.21 34.3691 138.293 36.739 134.282 36.739C131.365 36.739 128.813 35.8275 126.625 34.0045ZM153.06 35.2806V17.2329C153.06 16.5037 153.424 16.1391 154.154 16.1391H166.733C167.28 16.1391 167.827 16.5037 167.827 17.0506C167.827 17.7798 167.28 18.1444 166.733 18.1444H155.247V25.0718H165.457C166.004 25.0718 166.551 25.6187 166.551 26.1656C166.551 26.7125 166.004 27.2594 165.457 27.2594H155.247V34.3691H166.915C167.462 34.3691 168.009 34.7337 168.009 35.4629C168.009 36.0098 167.462 36.3744 166.915 36.3744H154.154C153.424 36.3744 153.06 35.8275 153.06 35.2806ZM188.063 26.5302C191.162 26.5302 193.35 24.8895 193.35 22.3373V22.155C193.35 19.7851 191.345 18.1444 188.063 18.1444H181.682V26.5302H188.063ZM179.495 17.2329C179.495 16.5037 180.041 16.1391 180.588 16.1391H188.245C190.798 16.1391 192.803 16.8683 194.079 18.1444C194.991 19.0559 195.538 20.5143 195.538 22.155C195.538 25.4364 193.35 27.4417 190.068 28.1709L195.173 34.5514C195.355 34.916 195.538 35.0983 195.538 35.4629C195.538 36.0098 194.991 36.5567 194.444 36.5567C193.897 36.5567 193.532 36.3744 193.35 36.0098L187.698 28.5355H181.682V35.4629C181.682 36.0098 181.318 36.5567 180.588 36.5567C180.041 36.5567 179.495 36.0098 179.495 35.4629V17.2329ZM213.586 35.6452L205.747 17.5975C205.565 17.4152 205.565 17.2329 205.565 17.0506C205.565 16.5037 206.112 15.9568 206.659 15.9568C207.388 15.9568 207.752 16.3214 207.935 16.8683L215.045 33.6399L221.973 16.686C222.337 16.3214 222.702 15.9568 223.249 15.9568C223.796 15.9568 224.343 16.5037 224.343 17.0506C224.343 17.2329 224.343 17.4152 224.16 17.4152L216.321 35.6452C216.139 36.3744 215.592 36.739 215.045 36.739H214.862C214.316 36.739 213.769 36.3744 213.586 35.6452ZM246.22 28.9001L241.48 18.509L236.74 28.9001H246.22ZM231.635 34.916L240.021 16.8683C240.203 16.1391 240.75 15.7745 241.48 15.7745C242.209 15.7745 242.756 16.1391 242.938 16.8683L251.324 34.916V35.4629C251.324 36.0098 250.96 36.5567 250.23 36.5567C249.684 36.5567 249.319 36.1921 249.137 35.8275L246.949 31.0877H235.828L233.823 35.8275C233.458 36.3744 233.093 36.5567 232.546 36.5567C232 36.5567 231.635 36.1921 231.635 35.4629V34.916ZM265.727 18.1444H259.711C259.164 18.1444 258.617 17.7798 258.617 17.0506C258.617 16.5037 259.164 16.1391 259.711 16.1391H273.931C274.478 16.1391 275.024 16.5037 275.024 17.0506C275.024 17.7798 274.478 18.1444 273.931 18.1444H267.914V35.4629C267.914 36.0098 267.55 36.5567 266.821 36.5567C266.274 36.5567 265.727 36.0098 265.727 35.4629V18.1444ZM286.328 17.0506C286.328 16.5037 286.875 15.9568 287.421 15.9568C288.151 15.9568 288.698 16.5037 288.698 17.0506V35.4629C288.698 36.0098 288.151 36.5567 287.421 36.5567C286.875 36.5567 286.328 36.0098 286.328 35.4629V17.0506ZM319.143 26.3479V26.1656C319.143 21.6081 315.679 17.7798 311.122 17.7798C306.382 17.7798 303.1 21.6081 303.1 26.1656C303.1 30.9054 306.382 34.7337 311.122 34.7337C315.862 34.7337 319.143 30.9054 319.143 26.3479ZM300.73 26.3479V26.1656C300.73 20.6966 304.923 15.7745 311.122 15.7745C317.32 15.7745 321.513 20.5143 321.513 26.1656C321.513 31.8169 317.32 36.739 311.122 36.739C304.923 36.739 300.73 31.9992 300.73 26.3479ZM333.363 17.0506C333.363 16.5037 333.91 15.9568 334.457 15.9568H334.822C335.369 15.9568 335.551 16.3214 335.916 16.686L348.313 32.3638V17.0506C348.313 16.5037 348.86 15.9568 349.407 15.9568C350.136 15.9568 350.5 16.5037 350.5 17.0506V35.4629C350.5 36.0098 350.136 36.5567 349.589 36.5567H349.407C348.86 36.5567 348.495 36.1921 348.13 35.8275L335.551 19.6028V35.4629C335.551 36.0098 335.004 36.5567 334.457 36.5567C333.91 36.5567 333.363 36.0098 333.363 35.4629V17.0506Z"/>
</mask>
<path d="M117.692 62.4432C117.692 56.6096 121.885 51.8698 127.901 51.8698C131.183 51.8698 133.37 52.9636 135.193 54.422C135.558 54.6043 135.74 54.9689 135.74 55.3335C135.74 56.0627 135.193 56.6096 134.464 56.6096C134.282 56.6096 133.917 56.4273 133.735 56.245C132.276 54.9689 130.453 53.8751 127.901 53.8751C123.343 53.8751 120.062 57.7034 120.062 62.2609V62.4432C120.062 67.0006 123.526 70.8289 127.901 70.8289C130.453 70.8289 132.276 69.9174 133.917 68.2767C134.1 68.0944 134.464 67.9121 134.647 67.9121C135.376 67.9121 135.74 68.459 135.74 69.0059C135.74 69.3705 135.558 69.7351 135.376 69.9174C133.37 71.7404 131.183 72.8342 127.901 72.8342C122.067 72.8342 117.692 68.2767 117.692 62.4432ZM163.998 62.4432C163.998 57.7034 160.534 53.8751 155.977 53.8751C151.237 53.8751 147.955 57.7034 147.955 62.2609V62.4432C147.955 67.0006 151.237 70.8289 155.977 70.8289C160.717 70.8289 163.998 67.0006 163.998 62.4432ZM145.585 62.4432C145.585 56.7919 149.778 51.8698 155.977 51.8698C162.175 51.8698 166.368 56.6096 166.368 62.2609V62.4432C166.368 67.9121 162.175 72.8342 155.977 72.8342C149.778 72.8342 145.585 68.0944 145.585 62.4432ZM177.854 64.0839V53.1459C177.854 52.599 178.401 52.0521 178.948 52.0521C179.677 52.0521 180.224 52.599 180.224 53.1459V63.9016C180.224 68.2767 182.594 70.8289 186.422 70.8289C190.068 70.8289 192.621 68.459 192.621 64.0839V53.1459C192.621 52.599 192.985 52.0521 193.715 52.0521C194.262 52.0521 194.808 52.599 194.808 53.1459V63.9016C194.808 69.7351 191.345 72.8342 186.422 72.8342C181.318 72.8342 177.854 69.7351 177.854 64.0839ZM207.206 53.1459C207.206 52.599 207.752 52.0521 208.482 52.0521H208.664C209.211 52.0521 209.576 52.4167 209.94 52.7813L222.337 68.459V53.1459C222.337 52.599 222.702 52.0521 223.431 52.0521C223.978 52.0521 224.525 52.599 224.525 53.1459V71.5581C224.525 72.105 223.978 72.6519 223.431 72.6519H223.249C222.884 72.6519 222.519 72.2873 222.155 71.9227L209.576 55.6981V71.5581C209.576 72.105 209.029 72.6519 208.299 72.6519C207.752 72.6519 207.206 72.105 207.206 71.5581V53.1459ZM242.573 54.2397H236.74C236.193 54.2397 235.646 53.8751 235.646 53.3282C235.646 52.599 236.193 52.2344 236.74 52.2344H250.96C251.507 52.2344 251.871 52.599 251.871 53.3282C251.871 53.8751 251.507 54.2397 250.96 54.2397H244.943V71.5581C244.943 72.105 244.397 72.6519 243.85 72.6519C243.12 72.6519 242.573 72.105 242.573 71.5581V54.2397ZM263.174 71.3758V53.3282C263.174 52.7813 263.721 52.2344 264.268 52.2344H276.848C277.577 52.2344 277.941 52.599 277.941 53.1459C277.941 53.8751 277.577 54.2397 276.848 54.2397H265.362V61.1671H275.571C276.118 61.1671 276.665 61.714 276.665 62.2609C276.665 62.8078 276.118 63.3547 275.571 63.3547H265.362V70.4643H277.03C277.577 70.4643 278.124 71.0112 278.124 71.5581C278.124 72.105 277.577 72.4696 277.03 72.4696H264.268C263.721 72.4696 263.174 72.105 263.174 71.3758ZM298.178 62.6255C301.277 62.6255 303.465 60.9848 303.465 58.4326V58.2503C303.465 55.8804 301.459 54.2397 298.178 54.2397H291.979V62.6255H298.178ZM289.609 53.3282C289.609 52.7813 290.156 52.2344 290.703 52.2344H298.36C300.912 52.2344 302.918 52.9636 304.194 54.2397C305.105 55.1512 305.652 56.6096 305.652 58.2503C305.652 61.714 303.465 63.537 300.365 64.2662L305.288 70.6466C305.652 71.0112 305.652 71.1935 305.652 71.5581C305.652 72.105 305.105 72.6519 304.559 72.6519C304.012 72.6519 303.829 72.4696 303.465 72.105L297.813 64.6307H291.979V71.5581C291.979 72.105 291.432 72.6519 290.703 72.6519C290.156 72.6519 289.609 72.105 289.609 71.5581V53.3282ZM81.4123 26.5302C84.5115 26.5302 86.6992 24.8895 86.6992 22.3373V22.155C86.6992 19.7851 84.6938 18.1444 81.4123 18.1444H75.0315V26.5302H81.4123ZM72.8438 17.2329C72.8438 16.5037 73.3907 16.1391 73.9376 16.1391H81.5946C84.1469 16.1391 86.1523 16.8683 87.4285 18.1444C88.34 19.0559 88.8869 20.5143 88.8869 22.155C88.8869 25.4364 86.6992 27.4417 83.4177 28.1709L88.5223 34.5514C88.8869 34.916 88.8869 35.0983 88.8869 35.4629C88.8869 36.0098 88.34 36.5567 87.7931 36.5567C87.2462 36.5567 86.8815 36.3744 86.6992 36.0098L81.0477 28.5355H75.0315V35.4629C75.0315 36.0098 74.6668 36.5567 73.9376 36.5567C73.3907 36.5567 72.8438 36.0098 72.8438 35.4629V17.2329ZM100.919 35.2806V17.2329C100.919 16.5037 101.466 16.1391 102.013 16.1391H114.593C115.322 16.1391 115.686 16.5037 115.686 17.0506C115.686 17.7798 115.322 18.1444 114.593 18.1444H103.107V25.0718H113.316C113.863 25.0718 114.41 25.6187 114.41 26.1656C114.41 26.7125 113.863 27.2594 113.316 27.2594H103.107V34.3691H114.775C115.322 34.3691 115.869 34.7337 115.869 35.4629C115.869 36.0098 115.322 36.3744 114.775 36.3744H102.013C101.466 36.3744 100.919 35.8275 100.919 35.2806ZM126.625 34.0045C126.443 33.8222 126.26 33.4576 126.26 33.093C126.26 32.5461 126.625 31.9992 127.354 31.9992C127.536 31.9992 127.901 32.1815 127.901 32.1815C129.906 33.8222 131.912 34.7337 134.464 34.7337C137.199 34.7337 139.022 33.2753 139.022 31.27V31.0877C139.022 29.2647 137.928 28.1709 133.735 27.2594C128.995 26.1656 126.807 24.7072 126.807 21.4258V21.2435C126.807 18.1444 129.724 15.7745 133.553 15.7745C136.287 15.7745 138.11 16.5037 139.933 17.7798C140.298 17.9621 140.48 18.3267 140.48 18.6913C140.48 19.2382 139.933 19.7851 139.387 19.7851C139.204 19.7851 139.022 19.7851 138.657 19.6028C137.017 18.3267 135.376 17.7798 133.553 17.7798C130.818 17.7798 129.177 19.2382 129.177 21.0612V21.2435C129.177 23.0665 130.089 24.1603 134.647 25.0718C139.204 26.1656 141.21 27.8063 141.21 30.9054C141.21 34.3691 138.293 36.739 134.282 36.739C131.365 36.739 128.813 35.8275 126.625 34.0045ZM153.06 35.2806V17.2329C153.06 16.5037 153.424 16.1391 154.154 16.1391H166.733C167.28 16.1391 167.827 16.5037 167.827 17.0506C167.827 17.7798 167.28 18.1444 166.733 18.1444H155.247V25.0718H165.457C166.004 25.0718 166.551 25.6187 166.551 26.1656C166.551 26.7125 166.004 27.2594 165.457 27.2594H155.247V34.3691H166.915C167.462 34.3691 168.009 34.7337 168.009 35.4629C168.009 36.0098 167.462 36.3744 166.915 36.3744H154.154C153.424 36.3744 153.06 35.8275 153.06 35.2806ZM188.063 26.5302C191.162 26.5302 193.35 24.8895 193.35 22.3373V22.155C193.35 19.7851 191.345 18.1444 188.063 18.1444H181.682V26.5302H188.063ZM179.495 17.2329C179.495 16.5037 180.041 16.1391 180.588 16.1391H188.245C190.798 16.1391 192.803 16.8683 194.079 18.1444C194.991 19.0559 195.538 20.5143 195.538 22.155C195.538 25.4364 193.35 27.4417 190.068 28.1709L195.173 34.5514C195.355 34.916 195.538 35.0983 195.538 35.4629C195.538 36.0098 194.991 36.5567 194.444 36.5567C193.897 36.5567 193.532 36.3744 193.35 36.0098L187.698 28.5355H181.682V35.4629C181.682 36.0098 181.318 36.5567 180.588 36.5567C180.041 36.5567 179.495 36.0098 179.495 35.4629V17.2329ZM213.586 35.6452L205.747 17.5975C205.565 17.4152 205.565 17.2329 205.565 17.0506C205.565 16.5037 206.112 15.9568 206.659 15.9568C207.388 15.9568 207.752 16.3214 207.935 16.8683L215.045 33.6399L221.973 16.686C222.337 16.3214 222.702 15.9568 223.249 15.9568C223.796 15.9568 224.343 16.5037 224.343 17.0506C224.343 17.2329 224.343 17.4152 224.16 17.4152L216.321 35.6452C216.139 36.3744 215.592 36.739 215.045 36.739H214.862C214.316 36.739 213.769 36.3744 213.586 35.6452ZM246.22 28.9001L241.48 18.509L236.74 28.9001H246.22ZM231.635 34.916L240.021 16.8683C240.203 16.1391 240.75 15.7745 241.48 15.7745C242.209 15.7745 242.756 16.1391 242.938 16.8683L251.324 34.916V35.4629C251.324 36.0098 250.96 36.5567 250.23 36.5567C249.684 36.5567 249.319 36.1921 249.137 35.8275L246.949 31.0877H235.828L233.823 35.8275C233.458 36.3744 233.093 36.5567 232.546 36.5567C232 36.5567 231.635 36.1921 231.635 35.4629V34.916ZM265.727 18.1444H259.711C259.164 18.1444 258.617 17.7798 258.617 17.0506C258.617 16.5037 259.164 16.1391 259.711 16.1391H273.931C274.478 16.1391 275.024 16.5037 275.024 17.0506C275.024 17.7798 274.478 18.1444 273.931 18.1444H267.914V35.4629C267.914 36.0098 267.55 36.5567 266.821 36.5567C266.274 36.5567 265.727 36.0098 265.727 35.4629V18.1444ZM286.328 17.0506C286.328 16.5037 286.875 15.9568 287.421 15.9568C288.151 15.9568 288.698 16.5037 288.698 17.0506V35.4629C288.698 36.0098 288.151 36.5567 287.421 36.5567C286.875 36.5567 286.328 36.0098 286.328 35.4629V17.0506ZM319.143 26.3479V26.1656C319.143 21.6081 315.679 17.7798 311.122 17.7798C306.382 17.7798 303.1 21.6081 303.1 26.1656C303.1 30.9054 306.382 34.7337 311.122 34.7337C315.862 34.7337 319.143 30.9054 319.143 26.3479ZM300.73 26.3479V26.1656C300.73 20.6966 304.923 15.7745 311.122 15.7745C317.32 15.7745 321.513 20.5143 321.513 26.1656C321.513 31.8169 317.32 36.739 311.122 36.739C304.923 36.739 300.73 31.9992 300.73 26.3479ZM333.363 17.0506C333.363 16.5037 333.91 15.9568 334.457 15.9568H334.822C335.369 15.9568 335.551 16.3214 335.916 16.686L348.313 32.3638V17.0506C348.313 16.5037 348.86 15.9568 349.407 15.9568C350.136 15.9568 350.5 16.5037 350.5 17.0506V35.4629C350.5 36.0098 350.136 36.5567 349.589 36.5567H349.407C348.86 36.5567 348.495 36.1921 348.13 35.8275L335.551 19.6028V35.4629C335.551 36.0098 335.004 36.5567 334.457 36.5567C333.91 36.5567 333.363 36.0098 333.363 35.4629V17.0506Z" fill="#D9D9D9" stroke="#FFFAF3" stroke-width="2.08466" mask="url(#path-1-inside-1_1980_216)"/>
<path d="M16.1963 2.37988C27.7113 -1.00229 39.5902 5.93703 42.6064 17.5215V17.5225C43.8439 22.3186 43.3223 26.764 41.542 31.4229C39.9371 35.1855 37.6149 38.4229 35.0801 41.6982C31.6473 45.6914 28.0314 49.3257 24.2256 52.9678L24.1836 53.0078L24.1514 53.0566C23.771 53.63 23.5195 54.1014 23.5195 54.8047V66.8232H24.7676C27.7207 66.8232 30.3844 66.641 33.2715 66.8223L33.2871 66.8232H33.3037C33.7371 66.8232 33.9912 66.8702 34.168 66.9658C34.3243 67.0504 34.484 67.2088 34.6357 67.5898L34.6562 67.6396L34.6855 67.6846C34.8635 67.9528 34.8345 68.3902 34.5303 69.0449C34.0974 69.3112 33.6911 69.4307 33.3037 69.4307H24.7676C24.6019 69.4307 24.4221 69.4297 24.2754 69.4502C24.1186 69.4721 23.8908 69.5313 23.7236 69.7412C23.5768 69.9258 23.546 70.1462 23.5332 70.291C23.5194 70.4478 23.5195 70.6464 23.5195 70.8643V75.0615C23.5195 75.3237 23.5853 75.6163 23.8076 75.8398C24.0305 76.0638 24.3233 76.1309 24.5859 76.1309H33.4854C34.5574 76.1309 35.1754 77.1679 34.6738 78.0732C34.391 78.4913 34.0021 78.7383 33.4854 78.7383H23.5195V82.5439C23.5195 83.536 22.8425 84.0303 22.2246 84.0303H22.043C21.7619 84.0302 21.439 83.8846 21.1758 83.6025C20.9161 83.3242 20.748 82.9465 20.748 82.5439V54.6221C20.748 54.3742 20.7523 54.1083 20.6826 53.8633C20.6033 53.5844 20.446 53.3728 20.2334 53.1592C16.2258 49.1322 12.0754 45.1431 8.46582 40.6094C5.93038 37.382 3.73191 34.0209 2.29199 30.0713L2.01465 29.2725C-1.52789 17.8636 4.68317 5.76166 16.1963 2.37988ZM35.6807 10.2812C29.8826 3.89835 20.9072 2.59194 13.4453 6.52832C6.26289 10.232 2.34994 18.6607 4.19141 26.6309L4.28418 27.0107C5.15824 30.6924 7.00817 34.0268 9.35059 37.1611L9.8252 37.7861C12.2146 41.2885 15.1477 44.2344 18.041 47.1416C18.6687 47.7723 19.2527 48.4043 19.8438 49.0439C20.4331 49.6817 21.0303 50.3279 21.6738 50.9746L22.043 51.3457L22.4121 50.9746C22.4228 50.9639 22.4327 50.954 22.4414 50.9453H22.6338L22.7881 50.7793C24.0522 49.4183 25.3629 48.1015 26.6807 46.7773C27.9963 45.4553 29.3192 44.1254 30.5977 42.749L30.6025 42.7441L30.6074 42.7383C33.3447 39.621 35.9151 36.3039 37.9385 32.6074L37.9414 32.6016C39.4247 29.807 40.3574 26.8139 40.5439 23.627L40.5449 23.6162C40.7254 18.721 39.3281 14.3261 36.0078 10.6367L35.6807 10.2812Z" stroke="#FFFAF3" stroke-width="1.04233"/>
<path d="M16.1963 2.37988C27.7113 -1.00229 39.5902 5.93703 42.6064 17.5215V17.5225C43.8439 22.3186 43.3223 26.764 41.542 31.4229C39.9371 35.1855 37.6149 38.4229 35.0801 41.6982C31.6473 45.6914 28.0314 49.3257 24.2256 52.9678L24.1836 53.0078L24.1514 53.0566C23.771 53.63 23.5195 54.1014 23.5195 54.8047V66.8232H24.7676C27.7207 66.8232 30.3844 66.641 33.2715 66.8223L33.2871 66.8232H33.3037C33.7371 66.8232 33.9912 66.8702 34.168 66.9658C34.3243 67.0504 34.484 67.2088 34.6357 67.5898L34.6562 67.6396L34.6855 67.6846C34.8635 67.9528 34.8345 68.3902 34.5303 69.0449C34.0974 69.3112 33.6911 69.4307 33.3037 69.4307H24.7676C24.6019 69.4307 24.4221 69.4297 24.2754 69.4502C24.1186 69.4721 23.8908 69.5313 23.7236 69.7412C23.5768 69.9258 23.546 70.1462 23.5332 70.291C23.5194 70.4478 23.5195 70.6464 23.5195 70.8643V75.0615C23.5195 75.3237 23.5853 75.6163 23.8076 75.8398C24.0305 76.0638 24.3233 76.1309 24.5859 76.1309H33.4854C34.5574 76.1309 35.1754 77.1679 34.6738 78.0732C34.391 78.4913 34.0021 78.7383 33.4854 78.7383H23.5195V82.5439C23.5195 83.536 22.8425 84.0303 22.2246 84.0303H22.043C21.7619 84.0302 21.439 83.8846 21.1758 83.6025C20.9161 83.3242 20.748 82.9465 20.748 82.5439V54.6221C20.748 54.3742 20.7523 54.1083 20.6826 53.8633C20.6033 53.5844 20.446 53.3728 20.2334 53.1592C16.2258 49.1322 12.0754 45.1431 8.46582 40.6094C5.93038 37.382 3.73191 34.0209 2.29199 30.0713L2.01465 29.2725C-1.52789 17.8636 4.68317 5.76166 16.1963 2.37988ZM35.6807 10.2812C29.8826 3.89835 20.9072 2.59194 13.4453 6.52832C6.26289 10.232 2.34994 18.6607 4.19141 26.6309L4.28418 27.0107C5.15824 30.6924 7.00817 34.0268 9.35059 37.1611L9.8252 37.7861C12.2146 41.2885 15.1477 44.2344 18.041 47.1416C18.6687 47.7723 19.2527 48.4043 19.8438 49.0439C20.4331 49.6817 21.0303 50.3279 21.6738 50.9746L22.043 51.3457L22.4121 50.9746C22.4228 50.9639 22.4327 50.954 22.4414 50.9453H22.6338L22.7881 50.7793C24.0522 49.4183 25.3629 48.1015 26.6807 46.7773C27.9963 45.4553 29.3192 44.1254 30.5977 42.749L30.6025 42.7441L30.6074 42.7383C33.3447 39.621 35.9151 36.3039 37.9385 32.6074L37.9414 32.6016C39.4247 29.807 40.3574 26.8139 40.5439 23.627L40.5449 23.6162C40.7254 18.721 39.3281 14.3261 36.0078 10.6367L35.6807 10.2812Z" fill="#D9D9D9" stroke="#FFFAF3" stroke-width="1.04233"/>
<path fill-rule="evenodd" clip-rule="evenodd" d="M22.0431 50.6202C22.2248 50.4378 22.2248 50.4378 22.4064 50.4378C24.9491 47.7014 27.6734 45.1474 30.2162 42.411C32.9405 39.3097 35.4832 36.026 37.4811 32.3775C38.934 29.6411 39.8422 26.7222 40.0238 23.621C40.2054 18.6954 38.7524 14.3172 35.3016 10.6686C29.6713 4.46612 20.9534 3.18913 13.6885 7.0201C6.60524 10.6686 2.79116 19.0603 4.78901 26.9047C5.69712 30.7356 7.69497 34.2018 10.2377 37.4854C12.5988 40.9516 15.5047 43.8704 18.4107 46.7892C19.6821 48.0662 20.7718 49.3432 22.0431 50.6202ZM24.041 66.309H24.7675C27.6734 66.309 30.3978 66.1265 33.3037 66.309C34.2119 66.309 34.7567 66.4914 35.12 67.4035C35.4832 67.9508 35.3016 68.6805 34.9383 69.4102C34.3935 69.7751 33.8486 69.9575 33.3037 69.9575H24.7675C24.041 69.9575 24.041 69.9575 24.041 70.8696V75.0655C24.041 75.4303 24.2226 75.6127 24.5859 75.6127H33.4854C34.9383 75.6127 35.8465 77.0722 35.12 78.3492C34.7567 78.8964 34.2119 79.2613 33.4854 79.2613H24.7675H24.041V79.991V82.545C24.041 83.822 23.1329 84.5517 22.0431 84.5517C21.135 84.5517 20.2269 83.6395 20.2269 82.545V54.6336C20.2269 54.0863 20.2269 53.9039 19.8637 53.539C15.868 49.5256 11.6907 45.5122 8.05822 40.9516C5.33388 37.4854 2.97279 33.8369 1.51981 29.4586C-2.11264 17.7833 4.24414 5.37825 16.0496 1.91214C18.0475 1.36485 20.2269 1 22.2248 1C31.8508 1 40.5686 7.56738 43.1114 17.4185C44.3827 22.344 43.8378 26.9047 42.0216 31.6478C40.387 35.4787 38.0259 38.7624 35.4832 42.0461C32.0324 46.0595 28.3999 49.7081 24.5859 53.3566C24.2226 53.9039 24.041 54.2688 24.041 54.816V66.309Z" stroke="#FFFAF3" stroke-width="0.997508"/>
<path d="M22.2451 13.2393C27.6954 13.2393 32.0762 17.5624 32.0762 22.9073C32.076 28.2403 27.5229 32.5752 22.0605 32.5753C16.9595 32.5753 12.5157 28.347 12.2432 23.3887L12.2305 22.9073C12.4148 17.5535 16.8041 13.2395 22.2451 13.2393ZM22.2451 16.0176C18.2779 16.0178 15.0693 19.1453 15.0693 22.9073C15.0695 26.8606 18.2879 29.7968 22.2451 29.7969C26.0372 29.7969 29.2362 26.6598 29.2363 22.9073C29.2363 19.1547 26.0373 16.0176 22.2451 16.0176Z" stroke="#FFFAF3" stroke-width="1.04233"/>
<path d="M22.2451 13.2393C27.6954 13.2393 32.0762 17.5624 32.0762 22.9073C32.076 28.2403 27.5229 32.5752 22.0605 32.5753C16.9595 32.5753 12.5157 28.347 12.2432 23.3887L12.2305 22.9073C12.4148 17.5535 16.8041 13.2395 22.2451 13.2393ZM22.2451 16.0176C18.2779 16.0178 15.0693 19.1453 15.0693 22.9073C15.0695 26.8606 18.2879 29.7968 22.2451 29.7969C26.0372 29.7969 29.2362 26.6598 29.2363 22.9073C29.2363 19.1547 26.0373 16.0176 22.2451 16.0176Z" fill="url(#paint0_linear_1980_216)" stroke="#FFFAF3" stroke-width="1.04233"/>
<path fill-rule="evenodd" clip-rule="evenodd" d="M22.2454 16.5388C18.5484 16.5388 15.5908 19.45 15.5908 22.9071C15.5908 26.5461 18.5484 29.2753 22.2454 29.2753C25.7575 29.2753 28.7151 26.3641 28.7151 22.9071C28.7151 19.45 25.7575 16.5388 22.2454 16.5388ZM22.2454 12.7178C27.9757 12.7178 32.5969 17.2666 32.5969 22.9071C32.5969 28.5475 27.7908 33.0963 22.0605 33.0963C16.5151 33.0963 11.709 28.3656 11.709 22.9071C11.8938 17.2666 16.5151 12.7178 22.2454 12.7178Z" stroke="#FFFAF3" stroke-width="0.997508"/>
<defs>
<linearGradient id="paint0_linear_1980_216" x1="12.1145" y1="12.8796" x2="31.8938" y2="33.2746" gradientUnits="userSpaceOnUse">
<stop offset="1" stop-color="#D9D9D9"/>
</linearGradient>
</defs>
</svg>
