<svg width="350" height="83" viewBox="0 0 350 83" fill="none" xmlns="http://www.w3.org/2000/svg">
<path d="M0 1.00513H1.63952C9.72561 1.00513 16.2224 3.89939 20.7617 9.47042V1.00513H29.7233V39.2439H20.4327V30.2823C20.4327 20.9415 16.5514 14.7124 9.29063 12.3647V39.2439H0V1.00513Z" fill="#FFFAF3"/>
<path d="M34.8535 1.00513H44.1386V39.2439H34.8535V1.00513Z" fill="#FFFAF3"/>
<path d="M56.4467 9.3087H47.6523V1.00513H74.5316V9.3087H65.7373V39.2439H56.4522V9.3087H56.4467Z" fill="#FFFAF3"/>
<path d="M78.0215 1.00513H100.584V9.3087H87.3121V15.482H96.3797V23.5681H87.3121V30.9404H100.584V39.2439H78.0215V1.00513Z" fill="#FFFAF3"/>
<path d="M197.044 1.01074H202.18V39.2496H192.895V32.2007H181.971V39.2496H172.686V27.3937C172.68 12.7049 182.623 1.94204 197.044 1.01074ZM192.895 23.9027V10.1341C186.778 11.9911 183.008 16.8539 182.132 23.9027H192.895Z" fill="#FFFAF3"/>
<path d="M140.426 1.01074H154.412C162.007 1.01074 167.361 5.92931 167.361 12.9168C167.361 17.6681 164.957 21.3319 161.026 23.0216C166.106 26.0832 169.112 31.9275 169.112 39.244H159.604C159.604 31.9219 155.945 26.8974 150.151 26.2449H149.716V39.244H140.431V1.01074H140.426ZM152.393 18.4934C155.728 18.4934 157.858 16.5249 157.858 13.4689C157.858 10.4073 155.728 8.55032 152.287 8.55032H149.722V18.1142C150.698 18.3875 151.573 18.4934 152.393 18.4934Z" fill="#FFFAF3"/>
<path d="M341.005 27.6669C339.153 25.6426 337.079 23.8302 334.82 22.2353C337.854 20.3225 339.655 17.0323 339.655 12.9224C339.655 5.92929 334.302 1.0163 326.706 1.0163H312.72V14.6065C311.789 14.5451 310.858 14.5005 309.915 14.495C304.634 14.495 299.671 14.7794 294.964 15.298V9.31429H308.237V1.01072H285.674V16.6643C279.567 17.7963 273.857 19.3076 268.358 21.0642V1.01072H259.073V24.3042C257.361 24.9455 255.66 25.6036 253.965 26.2783V1.01072H244.68V26.3062C244.68 29.418 242.823 31.4423 239.984 31.4423C237.09 31.4423 235.233 29.4235 235.233 26.3062V1.01072H226.054V26.3062C226.054 29.418 224.197 31.4423 221.359 31.4423C218.464 31.4423 216.607 29.4235 216.607 26.3062V1.01072H207.322V26.6854C207.322 33.8514 212.352 39.2384 219.323 39.8908C202.292 45.6348 182.361 50.0124 154.484 50.0235C140.23 49.4157 129.188 45.7296 122.558 39.3611C116.078 33.1431 115.531 26.1835 115.598 23.4621C115.71 17.9302 118.046 13.2904 121.855 11.0486C125.173 9.09123 129.144 9.23064 133.337 11.4501C133.354 11.4557 133.365 11.4613 133.382 11.4724V1.00514C127.638 -0.757067 121.833 -0.204981 116.925 2.6837C110.189 6.64867 106.062 14.35 105.889 23.2502C105.683 31.6821 109.308 40.1083 115.832 46.3709C124.337 54.5294 137.793 59.1748 154.383 59.738C197.853 59.738 224.37 48.9751 247.318 39.4837C251.316 37.8275 255.209 36.2214 259.084 34.7046V39.2495H281.647V30.946H269.362C274.615 29.1893 279.985 27.6781 285.69 26.5349V39.2495H308.253V30.946H294.981V25.0626C299.654 24.5106 304.589 24.2038 309.893 24.2038C310.846 24.2094 311.794 24.2652 312.731 24.3433V39.2551H322.016V26.3899C326.611 28.0963 330.677 30.7508 333.839 34.2139C338.49 39.3053 340.754 45.6571 340.213 52.098C339.17 64.5673 328.195 73.8747 315.748 72.8486C309.709 72.3523 304.227 69.5361 300.307 64.9131C296.386 60.2901 294.501 54.4235 294.998 48.384C295.215 45.7128 293.23 43.3651 290.559 43.1476C287.887 42.9245 285.54 44.9154 285.322 47.5921C284.614 56.2136 287.302 64.6008 292.901 71.1979C298.5 77.7951 306.329 81.8214 314.951 82.5296C315.849 82.6021 316.741 82.6411 317.622 82.6411C334.274 82.6411 348.477 69.8038 349.888 52.9066C350.652 43.7387 347.496 34.7771 341.005 27.6669ZM322.011 8.55029H324.576C328.017 8.55029 330.147 10.4073 330.147 13.4689C330.147 15.6493 329.06 17.2665 327.236 18.025C325.552 17.3111 323.801 16.7089 322.011 16.2014V8.55029Z" fill="#FFFAF3"/>
</svg>
