<svg width="350" height="146" viewBox="0 0 350 146" fill="none" xmlns="http://www.w3.org/2000/svg">
<path d="M104.722 70.557C104.722 70.7427 104.722 70.9284 104.537 71.1141V71.4854C104.351 71.4854 104.351 71.6711 104.351 71.6711V71.2998C104.537 71.2998 104.537 71.1141 104.537 70.9284C104.537 70.9284 104.722 70.7427 104.722 70.557ZM104.351 73.7135V74.4563V73.8992C104.165 73.7135 104.165 73.5279 104.351 73.1565V73.7135ZM137.03 43.8196C132.388 49.5756 127.189 55.1459 122.176 59.7878L119.948 62.0159C118.648 61.2732 117.163 60.7162 115.492 60.3448C114.563 60.1592 113.635 60.1592 112.707 60.1592H110.664C110.85 58.4881 111.221 56.817 111.407 55.1459C112.335 46.4191 113.449 37.321 114.006 28.2228C116.977 24.695 120.505 21.3528 125.147 17.4536C128.303 15.2255 132.017 12.8117 136.287 11.3263C138.701 10.3979 143.157 8.91248 147.057 9.65519C148.356 10.0265 149.47 10.7692 150.027 11.8833C151.884 15.0398 150.027 20.9814 149.47 22.6525C148.356 26.1804 146.314 29.3369 144.086 32.8647C142.6 35.6499 140.744 38.435 138.887 41.0345C138.144 41.9629 137.587 42.8913 137.03 43.8196ZM116.42 65.1724C115.677 66.1008 114.563 67.0292 113.449 67.7719C113.078 68.1433 112.707 68.5146 112.335 68.7003C111.593 69.2573 111.035 69.8143 110.293 70.1857C109.921 70.557 109.736 70.7427 109.364 70.9284C109.55 69.8143 109.55 68.7003 109.736 67.7719C109.921 66.6578 110.107 65.3581 110.107 64.244C112.335 63.8727 114.563 64.244 116.42 65.1724ZM135.173 74.6419C132.574 71.8568 129.046 68.7003 124.59 65.3581C124.218 64.9868 123.847 64.8011 123.476 64.4297C127.932 60.3448 132.945 55.8886 136.844 50.6897C142.415 44.3767 147.242 37.1353 151.884 28.9655C155.041 23.2096 156.155 17.8249 155.226 13.183C153.555 5.01327 144.829 5.38463 141.115 5.75598C134.616 6.68436 127.746 10.0265 119.948 16.1539C117.905 17.8249 116.234 19.496 114.563 21.1671C114.563 19.496 114.563 17.6393 114.378 15.9682V12.2547C114.563 11.6976 114.563 10.9549 114.378 10.3979V9.84086V5.94166L114.749 5.75598V5.5703C114.378 4.45625 113.449 4.08489 112.335 4.27057C112.115 4.26959 111.898 4.31214 111.695 4.39577C111.491 4.4794 111.307 4.60246 111.151 4.75783C110.996 4.9132 110.873 5.09781 110.789 5.301C110.706 5.50419 110.663 5.72193 110.664 5.94166C110.293 13.9257 109.921 20.9814 109.364 26.7374C108.065 28.4085 106.579 30.0796 105.465 31.9364L105.28 32.122H105.094C104.165 32.122 103.051 33.0504 103.051 34.1645C103.051 34.5358 103.237 34.7215 103.423 35.0929C103.608 35.2785 103.794 35.4642 103.794 35.8356L103.98 36.0212L104.165 36.2069C104.165 36.2069 104.351 36.2069 104.351 36.3926C104.722 36.5783 104.908 36.7639 105.28 36.7639C106.208 37.321 107.508 36.7639 108.065 36.0212L108.436 35.4642C108.622 35.0929 108.807 34.9072 108.993 34.7215C108.807 36.0212 108.622 37.5066 108.25 39.3634C107.508 48.2759 106.951 55.5173 106.022 62.0159C103.608 63.3157 101.937 65.5438 100.823 68.3289C100.266 69.6287 98.9665 73.1565 99.7092 75.199C100.452 77.2414 102.309 77.6127 104.165 77.6127C100.823 101.751 99.3379 120.504 99.3379 138.7C99.3379 140.743 99.3379 142.414 99.7092 144.456C99.7092 145.199 100.081 145.756 100.823 146.127C101.38 146.499 101.752 146.499 102.309 146.499C102.68 146.499 103.237 146.499 103.423 146.127C103.98 145.942 104.165 145.385 103.98 144.828C103.237 120.875 106.208 97.1088 108.807 76.1273C109.55 75.9417 110.107 75.3846 110.664 75.0133C110.85 74.8276 111.221 74.6419 111.407 74.4563C114.006 72.9708 116.42 70.9284 118.648 68.7003C119.205 68.3289 119.762 67.7719 120.505 67.2149C120.691 67.4005 121.062 67.5862 121.062 67.9576H121.248C128.675 73.5279 134.988 80.0265 140.001 87.4536L142.6 91.7242C142.972 92.6525 143.529 93.5809 144.086 94.5093V94.8807C144.086 95.0663 143.9 95.252 144.086 95.4377V96.1804C144.086 96.3661 143.9 96.5517 143.9 96.7374V97.2944C143.9 97.8515 144.271 98.5942 144.457 98.9655C145.014 99.7082 145.943 99.8939 146.5 99.7082C147.614 99.7082 148.356 99.3369 148.913 98.5942C150.027 96.5517 147.799 92.4669 147.242 91.3528C144.457 85.7825 140.929 80.7692 135.173 74.6419ZM158.197 60.9019C156.155 63.5013 152.998 67.2149 149.656 69.0716C149.47 63.8727 150.77 59.0451 152.07 55.7029C152.998 52.7321 155.041 47.1618 158.383 44.191C159.311 43.4483 160.24 43.2626 160.797 43.2626C161.354 43.2626 161.725 43.2626 161.911 43.4483C162.468 44.3767 163.21 45.6764 163.582 46.9761C164.325 50.8753 162.653 55.5173 158.197 60.9019ZM163.396 39.9204C161.911 39.1777 160.054 38.9921 158.569 39.7348C155.412 40.8488 152.813 43.8196 150.584 48.6472C147.057 55.7029 145.386 62.573 145.386 68.886C145.386 74.0849 146.871 81.1406 154.112 83.5544H154.669C155.783 83.5544 156.526 82.8117 156.712 82.2547C156.897 81.3263 156.526 80.3979 155.226 80.0265C151.699 78.7268 150.584 75.3846 149.842 72.2281C151.699 71.6711 153.184 70.7427 154.669 69.6287L155.412 69.2573C157.454 67.4005 159.868 65.3581 161.539 62.7586C163.767 60.3448 168.781 53.6605 167.667 46.4191C167.11 43.634 165.439 41.2202 163.396 39.9204ZM285.757 32.3077L297.64 31.1936L311.194 29.8939C312.308 29.7082 312.68 29.1512 312.68 28.7799C313.051 28.2228 312.865 27.6658 312.494 27.1088C311.937 26.5517 310.823 26.1804 309.895 26.3661C300.796 26.9231 291.141 27.8515 283.529 28.5942L282.414 28.7799C281.3 28.7799 280.186 28.9655 278.887 28.9655V28.2228V26.7374C278.887 26.1804 279.072 25.809 279.072 25.252C279.072 25.0663 278.887 24.695 278.887 24.3236C279.072 22.6525 279.444 20.9814 278.887 19.496V19.1247C278.887 17.8249 278.887 17.4536 278.515 16.7109C277.958 15.7825 277.401 15.5968 276.844 15.5968C276.287 15.5968 275.73 15.7825 275.359 16.1539C274.616 16.5252 274.43 17.0822 274.616 17.4536C274.43 17.4536 274.43 17.6393 274.43 17.6393V20.7958V29.3369V29.5226C272.759 29.5226 271.46 29.7082 270.16 29.8939C269.603 29.8939 269.046 29.8939 268.303 30.0796H268.117C265.518 30.2653 262.547 30.6366 259.762 30.8223C257.72 31.1936 255.491 31.3793 253.263 31.7507C251.035 31.9364 248.993 32.122 246.765 32.4934C244.165 32.8647 241.751 33.2361 239.895 33.7931C238.781 34.1645 237.481 34.9072 237.11 36.0212C237.11 36.5783 237.11 37.321 237.852 38.0637C238.595 38.6207 239.523 38.8064 240.452 38.435H240.637C241.009 38.2494 241.194 38.2494 241.38 37.878H241.566H241.751H241.937L242.123 37.5066C244.537 36.7639 247.136 36.3926 249.364 36.3926C257.348 35.0929 265.147 34.3501 274.43 33.4218C274.059 36.5783 273.873 39.3634 273.688 42.3342L273.316 46.6048C272.945 50.1326 272.574 53.6605 272.388 57.1883L270.717 79.0982V79.2838C269.603 91.3528 268.674 103.979 268.117 116.233C267.932 119.019 267.932 121.804 267.932 124.589C267.932 125.332 268.117 126.074 268.674 127.003C268.86 127.56 269.417 127.931 270.16 127.931H270.531C271.46 127.931 272.017 127.745 272.388 127.003C272.759 126.631 272.759 126.074 272.574 125.703C272.574 125.517 272.388 125.332 272.202 125.146L272.388 124.96L272.202 124.775C272.017 124.218 272.017 124.032 272.017 123.846V123.475C272.017 122.732 272.202 121.804 272.202 120.875C272.202 120.504 272.388 119.947 272.388 119.576V118.462C272.388 117.348 272.574 116.233 272.574 115.305V114.934L274.616 88.1963C274.802 83.9257 275.173 79.8409 275.544 75.5703L275.916 71.4854L278.701 33.0504C279.444 32.8647 280.372 32.8647 281.115 32.8647C282.786 32.6791 284.271 32.6791 285.757 32.3077ZM289.284 37.321C288.542 37.321 287.985 37.878 287.613 38.435V38.8064C287.428 38.8064 287.428 38.9921 287.428 38.9921L287.242 39.1777L286.871 39.3634C286.685 39.7348 286.499 40.2918 286.499 40.6631C286.685 41.0345 287.056 41.9629 287.428 42.1486H287.613C287.985 42.5199 288.542 42.8913 289.099 42.8913H289.284H289.47L289.656 42.3342C290.77 41.9629 291.513 40.6631 291.513 39.7348C291.698 39.1777 291.698 38.435 291.327 38.0637C290.956 37.5066 290.213 37.321 289.284 37.321ZM264.033 55.8886C264.033 56.26 263.847 56.6313 263.847 57.0027C263.476 57.9311 262.918 58.8594 262.547 59.6021C262.176 60.1592 261.804 60.7162 261.433 61.4589C261.062 62.3873 260.505 63.3157 260.133 64.4297C258.834 66.8435 257.72 69.0716 256.42 71.2998C255.12 73.7135 253.449 76.4987 250.85 78.7268V78.9125C250.478 79.2838 250.293 79.4695 250.107 79.4695C249.921 79.4695 249.735 79.2838 249.55 78.9125C249.178 77.9841 249.178 76.87 249.55 75.9417L249.735 75.756C249.921 68.886 252.892 63.13 255.306 59.2308C255.491 59.0451 255.677 58.6738 255.863 58.3024C256.977 56.6313 259.391 52.9178 261.433 52.5464H261.619C261.99 52.5464 262.361 52.5464 262.547 52.7321C263.104 53.2891 263.661 53.4748 264.404 53.2891C264.218 54.2175 264.033 55.1459 264.033 55.8886ZM268.117 56.817C269.231 55.1459 270.531 52.7321 269.417 50.8753C269.231 49.947 268.489 49.5756 267.56 49.3899C266.818 49.3899 266.075 49.7613 265.704 50.3183C265.518 50.3183 265.518 50.504 265.332 50.6897H265.147C264.033 49.3899 262.547 49.0186 261.062 49.0186C257.72 49.3899 254.563 53.2891 252.521 56.0743V56.26C252.521 56.26 252.335 56.26 252.335 56.4456C250.293 58.3024 248.436 59.4165 246.579 59.6021C244.908 59.7878 244.165 59.2308 243.051 58.3024C242.494 57.7454 241.751 57.374 241.009 57.0027C240.08 56.26 238.966 56.0743 238.038 56.4456C237.481 56.6313 237.11 57.0027 236.552 57.374L236.181 57.7454C234.696 59.2308 233.582 61.6446 233.21 62.7586C231.911 66.1008 231.354 69.6287 230.982 72.9708C230.797 74.0849 230.611 75.0133 230.611 76.1273C230.425 77.2414 230.054 78.3555 229.868 79.4695C229.682 80.5836 229.311 81.6976 229.311 82.8117C229.125 83.183 229.125 83.7401 228.94 84.1114C228.754 84.8541 228.568 85.4112 228.383 86.1539C227.826 83.9257 227.454 81.6976 227.269 79.6552C226.712 76.87 226.712 73.8992 226.526 70.9284C226.526 69.8143 226.34 68.7003 226.34 67.4005V67.0292C226.155 65.5438 226.155 65.5438 226.155 63.687V61.4589C225.969 61.0875 225.969 60.9019 225.783 60.7162C225.598 59.7878 225.412 59.0451 224.669 58.6738C224.298 58.4881 223.741 58.4881 223.184 58.8594C222.627 59.0451 222.07 59.6021 221.884 60.5305C221.884 60.7162 221.884 61.0875 221.698 61.2732V64.244C221.698 66.4722 221.698 66.6578 221.884 68.886C222.441 72.9708 222.627 77.0557 222.998 81.1406V81.3263C223.555 84.8541 224.669 88.939 226.897 92.6525L227.083 92.8382C227.454 93.2096 228.197 93.3952 228.94 93.2096C229.682 93.2096 230.239 92.8382 230.611 92.0955C232.653 88.0106 233.396 83.183 233.953 78.9125L234.139 77.9841C234.696 75.756 235.067 73.7135 235.438 71.6711C235.81 69.443 235.995 67.4005 236.552 65.3581C236.738 64.9868 236.924 64.6154 236.924 64.244C237.481 62.9443 238.038 61.6446 238.966 60.3448C238.966 60.3448 239.152 60.1592 239.338 60.1592C239.523 60.1592 239.709 60.3448 239.709 60.5305C240.08 60.7162 240.452 60.9019 240.823 61.2732C241.38 61.6446 241.937 62.0159 242.68 62.573C244.351 63.5013 246.579 63.5013 248.621 62.9443C246.579 67.4005 245.465 72.0425 245.279 76.313C245.094 78.7268 245.465 80.5836 246.579 81.8833C247.507 82.626 248.621 83.183 250.107 83.183C253.449 83.183 255.863 79.6552 257.72 77.2414C257.905 76.87 257.905 76.6844 258.091 76.4987C259.576 74.4563 260.876 72.2281 262.176 69.6287C261.99 72.2281 261.804 74.8276 261.804 77.0557C261.619 78.1698 261.619 79.4695 261.433 80.5836C261.247 83.7401 261.062 86.8966 261.062 90.2387C261.062 92.8382 261.433 94.5093 262.547 95.252C262.918 95.4377 263.104 95.4377 263.476 95.4377C263.847 95.4377 264.404 95.4377 264.59 95.252C265.518 94.8807 265.704 94.3236 265.704 93.9523C265.704 93.3952 265.704 92.8382 264.961 92.4669V87.0822C264.961 83.7401 265.332 79.8409 265.889 75.756V75.199C266.075 74.0849 266.075 72.7852 266.261 71.6711C266.261 70.7427 266.446 69.8143 266.446 68.886C266.632 68.1433 266.632 67.4005 266.818 66.6578C266.818 65.5438 267.003 64.4297 267.003 63.3157C267.003 62.0159 267.375 60.3448 267.746 58.3024V58.1167C268.117 57.7454 268.117 57.374 268.117 57.0027V56.817ZM230.611 50.3183C232.096 50.6897 233.767 49.2043 234.139 47.9045C234.324 47.1618 233.953 46.4191 233.21 46.2334C226.34 43.8196 219.099 48.0902 215.757 53.4748C215.014 54.7746 214.086 56.26 213.343 57.7454L214.457 52.3608C214.643 51.6181 214.457 50.8753 213.9 50.3183C213.343 49.7613 212.415 49.5756 211.858 49.7613C211.301 49.947 210.929 50.3183 210.744 51.061C208.515 60.1592 207.587 68.7003 207.958 77.0557C207.773 77.0557 207.773 77.2414 207.773 77.2414H207.958V77.4271C208.144 78.5411 209.072 79.2838 210.001 79.2838V79.4695C210.929 79.4695 211.672 78.9125 211.858 78.1698H212.043V77.6127C212.972 69.6287 214.086 64.8011 217.056 59.0451C221.141 51.061 227.454 49.3899 230.611 50.3183ZM176.579 78.3555L176.765 77.9841C177.136 76.87 177.693 75.756 178.436 74.8276C178.993 77.0557 178.993 79.2838 178.436 81.512C178.065 82.9974 177.693 83.5544 177.322 83.5544C176.95 83.7401 176.765 83.5544 176.208 83.183C174.908 82.2547 176.022 79.6552 176.579 78.3555ZM195.889 62.0159C195.332 62.3873 194.961 62.3873 194.59 62.3873C194.775 57.9311 196.446 50.8753 200.16 49.0186C200.717 48.8329 201.088 48.8329 201.46 49.0186C201.645 49.2043 201.831 49.5756 201.831 50.3183C201.831 53.4748 201.274 54.5889 200.903 55.1459C199.603 58.3024 197.003 61.0875 195.889 62.0159ZM204.059 46.2334C202.945 45.4907 201.274 44.9337 199.789 45.1194C197.746 45.4907 195.518 47.3475 193.661 50.3183C191.619 53.1035 190.505 57.7454 190.505 60.9019C190.505 61.8303 190.691 62.9443 190.876 63.8727V64.0584C186.977 64.9868 183.263 66.2865 180.107 68.3289C179.921 67.7719 179.736 67.4005 179.55 67.0292C177.508 63.13 175.836 59.4165 175.465 54.9602C175.279 51.061 176.022 48.4616 177.508 47.1618C178.436 46.4191 179.179 46.2334 180.107 46.4191C181.035 46.6048 181.964 47.7189 182.521 49.3899C182.892 50.504 184.192 50.8753 185.12 50.504C185.863 50.3183 186.606 49.3899 186.234 48.2759C185.306 45.8621 184.006 43.2626 181.035 42.5199C178.436 41.9629 175.279 43.0769 173.794 45.1194C168.781 52.1751 172.866 62.7586 175.836 68.5146L176.95 70.7427C176.022 71.6711 175.279 72.5995 174.537 73.7135C173.237 75.756 171.195 79.6552 171.937 82.8117C172.309 85.2255 174.537 87.6393 177.136 87.6393H177.693C179.364 87.2679 180.664 86.3395 181.592 84.8541C183.449 81.512 182.706 75.5703 181.592 71.8568C184.192 70.1857 187.163 69.0716 190.133 68.3289C190.691 68.3289 191.062 68.3289 191.619 68.1433C191.99 68.886 192.362 69.2573 192.733 69.6287C192.919 70 193.104 70.1857 193.29 70.3714C194.59 71.8568 196.632 73.1565 199.789 74.0849H200.346C201.46 74.0849 202.017 73.3422 202.202 72.7852C202.388 72.2281 202.202 71.1141 200.717 70.557C199.789 70.3714 198.118 70 196.632 68.5146C196.261 67.9576 195.889 67.5862 195.704 67.4005C195.332 67.2149 195.147 67.2149 195.147 66.8435C195.332 66.6578 195.704 66.4722 195.889 66.2865C196.818 65.5438 197.932 64.9868 198.675 64.244C200.717 62.573 202.759 59.9735 203.874 57.5597C204.988 55.7029 206.102 51.4324 205.73 49.2043C205.545 48.0902 204.988 46.9761 204.059 46.2334ZM309.523 71.4854C307.852 71.2998 306.738 70.557 305.995 69.2573C304.324 66.6578 305.067 61.8303 306.367 58.1167C306.738 57.9311 306.924 57.5597 307.109 57.374C307.295 57.0027 307.295 56.4456 307.109 55.8886V55.7029C308.038 52.9178 310.266 48.8329 312.308 48.8329C312.865 48.8329 313.608 50.6897 313.979 51.2467C314.536 52.5464 314.536 53.8462 314.536 55.3316C315.093 60.1592 314.351 65.5438 312.308 71.4854H311.38C310.637 71.4854 310.08 71.6711 309.523 71.4854ZM304.881 77.7984C304.324 77.2414 303.953 76.6844 303.767 76.1273C303.582 75.9417 303.582 75.756 303.396 75.5703C303.21 74.4563 303.025 73.1565 303.025 72.0425C303.582 72.5995 304.139 72.9708 304.696 73.3422C306.367 74.4563 308.409 75.0133 310.637 74.8276L310.08 75.9417C309.337 77.2414 308.409 78.5411 307.481 79.4695C307.109 79.6552 306.552 80.0265 305.624 79.2838C305.624 79.0982 305.438 79.0982 305.438 78.9125C305.438 78.5411 305.253 78.1698 304.881 77.7984ZM348.886 99.3369C348.329 98.9655 347.772 98.9655 347.03 99.3369C346.658 99.5226 346.473 99.7082 346.287 99.7082H346.101L345.73 99.3369C344.987 98.5942 344.802 97.4801 344.43 96.3661V95.9947C343.502 91.5385 343.502 87.2679 343.502 82.8117V81.6976C343.502 77.2414 343.688 72.9708 344.059 68.5146V66.6578L344.245 65.5438C344.616 62.2016 344.987 58.3024 344.245 54.7746C344.245 54.0318 343.688 53.2891 342.945 52.7321C342.016 52.1751 340.902 52.1751 339.788 52.5464C338.117 53.4748 337.003 55.3316 336.075 57.0027V57.1883C335.889 57.374 335.703 57.7454 335.518 58.1167C333.104 62.7586 330.876 67.5862 328.276 73.5279V73.3422L328.462 73.1565C328.648 71.2998 328.833 69.2573 329.205 67.4005L329.762 64.244C329.948 63.3157 330.133 62.3873 330.505 61.4589V61.2732C330.69 61.0875 330.69 60.9019 330.69 60.5305C330.876 60.1592 331.062 59.6021 331.062 59.2308V59.0451C331.062 58.1167 331.433 57.374 331.619 56.817C332.176 56.6313 332.547 56.26 332.918 55.8886C333.104 55.5173 333.104 55.1459 332.918 54.5889C332.361 53.2891 331.619 53.1035 331.062 53.1035C329.948 52.9178 328.833 53.8462 328.276 54.9602C327.534 56.6313 326.977 58.8594 326.605 61.0875L326.234 61.4589C323.635 64.244 321.221 66.8435 318.25 68.886H318.064C317.507 69.2573 317.136 69.443 316.765 69.6287C316.95 68.886 317.136 68.1433 317.322 67.5862V67.0292C318.807 61.4589 320.292 53.2891 316.208 47.7189C315.465 46.4191 314.351 45.6764 312.865 45.4907C311.38 45.3051 309.709 45.8621 308.223 47.1618C306.367 48.6472 305.067 51.061 303.767 53.4748L303.396 54.4032C303.21 54.4032 303.025 54.4032 302.839 54.5889C301.539 55.3316 300.796 56.817 300.239 58.3024H300.054C300.054 58.4881 300.054 58.6738 299.868 58.6738C297.826 61.8303 296.34 65.1724 294.669 69.2573C294.483 69.8143 294.112 70.557 293.926 71.2998L291.698 76.313C290.213 79.4695 288.356 82.626 287.056 82.9974V82.626L286.685 82.8117H286.499C286.314 82.8117 286.128 82.626 285.942 81.8833C285.571 80.2122 285.571 78.5411 285.571 76.87C285.571 76.313 285.757 75.756 285.757 75.199C285.757 71.8568 285.942 68.7003 286.685 65.5438C286.871 64.244 287.056 63.13 287.056 62.0159C287.613 58.3024 288.17 54.5889 289.284 51.2467C289.656 50.6897 289.47 50.1326 289.099 49.5756C288.727 49.0186 287.799 48.6472 287.056 48.8329C286.128 48.8329 285.571 49.3899 285.2 50.1326C283.529 54.4032 282.786 59.4165 282.043 64.244L281.857 66.1008C281.115 71.2998 280.372 76.6844 281.672 82.069C282.043 83.5544 282.6 84.6685 283.529 85.5968C284.457 86.5252 285.571 86.8966 286.871 86.8966C287.428 86.8966 287.985 86.8966 288.356 86.7109C291.327 85.9682 292.812 82.9974 293.926 80.5836L294.112 80.3979C295.412 77.7984 296.34 75.199 297.454 72.5995C298.181 70.7708 298.986 68.9743 299.868 67.2149C299.497 70.3714 299.311 73.8992 300.425 76.6844C300.239 76.87 300.239 77.0557 300.239 77.0557V77.2414V77.4271C301.353 79.8409 302.839 81.6976 304.51 82.626C305.995 83.3687 307.481 83.5544 308.78 82.9974C311.566 81.8833 312.865 79.2838 313.794 77.0557C314.536 76.1273 315.093 75.199 315.279 73.8992C318.621 72.7852 321.221 71.4854 323.078 69.8143C323.82 69.0716 324.563 68.5146 325.12 67.9576C323.635 74.6419 323.263 80.2122 323.449 85.0398C323.449 85.9682 324.006 86.5252 324.749 86.7109C325.677 87.0822 326.791 86.5252 327.348 85.5968L332.361 74.6419C333.847 71.1141 335.518 67.4005 337.189 63.687C337.56 63.13 337.746 62.573 338.117 62.0159C338.489 61.4589 338.674 60.7162 338.86 60.1592C339.231 59.4165 339.603 58.6738 340.16 57.9311V60.9019V62.573V63.5013C340.16 64.0584 340.16 64.6154 339.974 65.1724V67.0292C339.788 70.9284 339.417 75.199 339.417 79.2838C339.417 84.1114 339.417 89.1247 340.16 94.5093L340.345 94.695C340.717 97.4801 341.459 101.751 344.802 102.865C345.359 103.05 345.916 103.236 346.473 103.236C347.401 103.236 348.144 103.05 349.072 102.493C349.629 102.308 349.815 101.751 350.001 101.194C350.001 100.451 349.629 99.7082 348.886 99.3369Z" fill="#FFFAF3"/>
<path d="M163.952 107.878C162.467 107.507 160.424 107.321 158.196 107.321H155.597V108.435V108.992L155.782 110.849V112.52C155.782 113.263 155.782 113.82 155.597 114.191V118.647V121.247H157.639C160.981 121.247 163.766 120.69 165.994 119.761C168.408 118.833 169.708 117.162 169.708 114.934C169.708 114.191 169.522 113.448 169.337 112.52C168.594 110.292 166.737 108.621 163.952 107.878ZM152.811 122.361C152.626 121.247 152.626 120.133 152.626 118.833V118.276V116.233L152.811 114.191V112.706V112.149V110.292C152.626 109.549 152.626 108.992 152.626 108.435C152.626 107.507 152.811 106.764 152.811 106.207C152.811 105.836 152.997 105.464 153.368 105.279C153.554 105.093 153.925 105.093 154.297 105.093C155.597 104.907 156.711 104.907 157.825 104.907C160.795 104.907 163.581 105.279 165.809 106.021C169.708 107.321 171.936 109.549 172.307 113.077C172.307 113.448 172.493 114.005 172.493 114.377C172.493 117.905 170.636 120.318 167.108 121.989C164.695 123.103 161.538 123.66 157.825 123.66C156.711 123.66 155.411 123.66 154.297 123.475C153.74 123.475 153.368 123.289 153.183 122.918C152.997 122.732 152.811 122.546 152.811 122.361ZM183.262 104.907H187.904H192.36C192.917 104.907 193.289 105.093 193.474 105.279C193.846 105.65 193.846 105.836 193.846 106.207C193.846 106.578 193.846 106.764 193.474 107.135C193.289 107.321 192.917 107.507 192.36 107.507H188.275H186.79H184.191H183.077H182.148L181.963 110.106V111.592V114.191H182.148H184.562H187.161C189.39 114.191 191.061 114.005 192.175 114.005C192.732 114.005 193.103 114.191 193.289 114.377C193.474 114.748 193.66 114.934 193.66 115.305C193.66 115.676 193.474 115.862 193.289 116.233C193.103 116.419 192.732 116.605 192.175 116.605H187.161H184.562L182.148 116.79V117.162C182.148 118.647 181.963 119.947 181.963 121.061H184.748H187.533C189.947 121.061 191.803 121.061 193.289 120.875C193.846 120.875 194.031 121.061 194.403 121.247C194.588 121.618 194.774 121.804 194.774 122.175C194.774 122.546 194.588 122.732 194.403 123.103C194.031 123.289 193.66 123.475 193.289 123.475H186.79H183.448H180.291H180.106C179.734 123.475 179.363 123.289 178.992 123.103C178.806 122.732 178.62 122.546 178.62 122.175L178.806 121.989C178.806 121.061 178.992 120.133 178.992 118.833V117.719V116.79L178.806 115.676V114.377V113.634V113.263V111.777V110.849V109.735C178.62 109.549 178.62 109.363 178.62 109.178C178.62 107.878 178.806 106.764 179.177 106.021C179.363 105.464 179.92 105.093 180.848 105.093C181.22 104.907 181.777 104.907 182.148 104.907H182.891H183.262ZM209.071 123.846C207.4 123.66 205.915 123.475 204.615 122.918C203.687 122.546 202.944 122.175 202.201 121.618L201.458 120.875C201.087 120.69 201.087 120.504 200.901 120.318C200.716 119.947 200.53 119.947 200.53 119.761V119.576L200.344 119.39V119.019C200.344 118.462 200.716 118.09 201.458 117.905H201.83H202.573C202.944 118.09 203.13 118.462 203.315 118.833C203.501 119.204 203.687 119.576 204.244 119.761C204.986 120.504 206.286 121.061 208.143 121.247H210C211.485 121.247 212.785 121.061 213.899 120.504L214.27 120.133C214.456 120.133 214.456 119.947 214.456 119.761C214.641 119.576 214.641 119.39 214.827 119.204V118.833C214.827 118.462 214.827 118.276 214.641 117.905C214.456 117.533 214.27 117.347 213.899 116.976C213.342 116.605 212.785 116.233 211.856 115.862C211.299 115.491 210.371 115.305 209.443 114.934C208.143 114.748 207.029 114.377 206.1 114.191C204.429 113.634 203.315 112.891 202.573 112.334C201.644 111.406 201.273 110.477 201.273 109.363C201.273 108.064 202.016 106.95 203.501 106.021C204.986 105.093 207.029 104.721 209.628 104.721C212.042 104.721 214.084 105.279 215.756 106.393C216.498 106.95 217.241 107.507 217.612 108.064C217.612 108.249 217.798 108.435 217.798 108.621C217.798 108.806 217.612 108.992 217.612 108.992C217.427 109.363 217.241 109.549 216.87 109.735H216.127H215.756C215.384 109.735 215.013 109.549 214.641 109.178C213.899 108.249 212.599 107.692 210.742 107.321C210.185 107.135 209.443 107.135 208.886 107.135C207.957 107.135 207.029 107.321 206.286 107.692C205.543 108.064 204.986 108.621 204.801 109.178V109.549C204.801 110.106 204.986 110.477 205.543 111.034H205.729V111.22C205.915 111.406 206.1 111.406 206.286 111.592L206.657 111.777H206.843C207.586 111.963 208.328 112.334 209.628 112.52L211.114 113.077C211.671 113.077 212.228 113.263 212.599 113.448C213.899 113.82 214.827 114.191 215.57 114.562C216.127 114.934 216.684 115.305 217.055 115.676C217.427 116.233 217.798 116.605 217.984 117.162C217.984 117.533 218.169 117.719 218.169 118.09V118.647V118.833V119.39C217.984 119.576 217.984 119.761 217.984 119.947L217.798 120.133C217.374 121.182 216.582 122.04 215.57 122.546C214.641 123.103 213.342 123.475 212.042 123.66C211.299 123.66 210.557 123.846 209.628 123.846H209.443H209.257H209.071ZM228.939 122.361C228.939 122.732 228.939 122.918 228.567 123.103C228.196 123.289 227.824 123.475 227.453 123.475C227.082 123.475 226.71 123.289 226.525 123.103C226.153 122.918 225.968 122.732 225.968 122.361V105.836C225.968 105.464 226.153 105.279 226.525 105.093C226.71 104.721 227.082 104.721 227.453 104.721C227.824 104.721 228.196 104.721 228.567 105.093C228.939 105.279 228.939 105.464 228.939 105.836V114.005C229.496 113.82 230.053 113.634 230.795 113.263L231.724 112.891L232.652 112.52C234.323 111.963 235.437 111.406 236.366 111.034C238.965 109.549 240.265 107.878 240.45 105.836C240.45 105.464 240.636 105.279 240.822 105.093C241.193 104.721 241.565 104.721 241.936 104.721C242.307 104.721 242.679 104.721 242.864 105.093C243.236 105.279 243.421 105.464 243.421 105.836C243.421 108.806 241.565 111.034 237.851 112.891C239.708 113.82 241.379 115.119 242.307 116.976C243.421 118.647 243.978 120.318 243.978 122.361C243.978 122.732 243.793 123.103 243.607 123.289C243.236 123.475 242.864 123.475 242.493 123.475C242.122 123.475 241.75 123.475 241.379 123.289C241.193 123.103 241.007 122.732 241.007 122.361C240.822 120.504 240.265 118.833 239.336 117.347C238.037 115.862 236.366 114.934 234.323 114.562L233.023 115.119L231.538 115.676C230.61 116.048 229.681 116.419 228.939 116.605V122.361ZM73.5277 54.0318C70.3712 63.13 63.1298 70.3714 54.0317 73.5279C51.6179 74.2706 49.3898 75.5703 47.5331 77.2414C49.3898 70.1857 53.1033 63.687 58.3023 58.3024C63.6869 53.1034 70.1855 49.3899 77.2412 47.5332C75.5701 49.3899 74.2704 51.618 73.5277 54.0318ZM34.9071 73.5279C25.809 70.3714 18.5676 63.13 15.5968 54.0318C14.8541 51.618 13.3687 49.3899 11.6976 47.5332C26.366 51.2467 37.8779 62.7586 41.4058 77.2414C39.549 75.5703 37.3209 74.2706 34.9071 73.5279ZM15.5968 34.9072C18.5676 25.809 25.809 18.5676 34.9071 15.5968C37.3209 14.8541 39.549 13.3687 41.4058 11.6976C39.7347 18.939 36.0211 25.4377 30.6365 30.6366C25.4376 36.0212 18.939 39.7347 11.6976 41.4058C13.3687 39.5491 14.8541 37.321 15.5968 34.9072ZM44.5622 74.4562C40.2917 60.1592 28.9655 48.8329 14.6684 44.5623C28.9655 40.2918 40.2917 28.9655 44.5622 14.6684C46.6047 21.5385 50.3182 28.0371 55.7028 33.4218C61.0874 38.6207 67.4004 42.5199 74.4561 44.5623C60.159 48.8329 48.8328 60.1592 44.5622 74.4562ZM54.0317 15.5968C63.1298 18.5676 70.3712 25.809 73.5277 34.9072C74.2704 37.321 75.5701 39.5491 77.2412 41.4058C62.7585 37.6923 51.2466 26.366 47.5331 11.6976C49.3898 13.5544 51.6179 14.8541 54.0317 15.5968ZM87.2677 42.7056H86.8964C85.5966 42.7056 84.2969 42.5199 82.9972 42.5199C80.3977 40.8488 78.3553 38.2493 76.8699 33.7931C73.5277 23.5809 65.5436 15.4111 55.3315 12.069C50.8752 10.5836 48.0901 8.72679 46.6047 5.94164C46.419 4.64191 46.419 3.34218 46.419 1.85676C46.419 0.742706 45.4906 0 44.5622 0C43.4482 0 42.7055 0.742706 42.7055 1.85676C42.7055 3.1565 42.5198 4.64191 42.5198 5.94164C41.0344 8.72679 38.2493 10.5836 33.793 12.069C23.5809 15.4111 15.4111 23.5809 12.0689 33.7931C10.5835 38.2493 8.72677 41.0345 5.94163 42.5199C4.6419 42.5199 3.15649 42.7056 1.85676 42.7056C0.742704 42.7056 0 43.4483 0 44.5623C0 45.4907 0.742704 46.4191 1.85676 46.4191H2.04244C3.34217 46.4191 4.6419 46.4191 5.94163 46.6048C8.72677 48.0902 10.5835 50.8753 12.0689 55.3316C15.4111 65.5438 23.5809 73.5279 33.793 76.87C38.2493 78.3554 41.0344 80.3979 42.5198 83.183C42.5198 84.4828 42.7055 85.7825 42.7055 87.2679C42.7055 88.1963 43.4482 89.1247 44.5622 89.1247C45.4906 89.1247 46.419 88.1963 46.419 87.2679C46.419 85.7825 46.419 84.4828 46.6047 82.9973C48.0901 80.3979 50.8752 78.3554 55.3315 76.87C65.5436 73.5279 73.5277 65.5438 76.8699 55.3316C78.3553 50.8753 80.3977 48.0902 82.9972 46.6048C84.4826 46.4191 85.7823 46.4191 87.2677 46.4191C88.1961 46.4191 89.1245 45.4907 89.1245 44.5623C89.1245 43.4483 88.1961 42.7056 87.2677 42.7056Z" fill="#FFFAF3"/>
</svg>
