<svg width="349" height="98" viewBox="0 0 349 98" fill="none" xmlns="http://www.w3.org/2000/svg">
<g clip-path="url(#clip0_2141_50)">
<path d="M3.15778 23.3093L0.760278 30.3302H17.5719C17.5719 30.3302 4.94278 67.3405 0 81.8432H8.27556C12.0847 70.1585 23.9089 35.9043 25.8047 30.3283H42.7L45.0975 23.3074H3.15778V23.3093Z" fill="#FFFAF3"/>
<path d="M300.555 45.2823H290.691C285.268 62.4288 277.883 69.2579 275.423 70.4355C275.423 70.4355 277.809 68.1385 277.636 62.0259C277.486 56.7578 274.433 50.163 271.981 45.2823H262.029C257.594 59.5197 248.747 70.8538 245.086 70.8538C244.405 70.8538 243.898 70.6214 243.575 70.1643C242.227 68.243 244.354 62.4501 250.674 45.2823H243.287L241.885 49.4697C240.499 46.4057 237.179 44.4572 233.987 44.4572C225.565 44.4572 219.071 53.8643 217.688 62.76C214.974 66.0428 210.282 69.4807 206.578 70.3251C210.261 67.0965 213.288 59.1537 213.288 54.1141C213.288 48.2321 210.618 44.8039 206.08 44.4999C200.486 44.1241 197.114 46.8666 196.154 47.7847L196.99 45.2843H189.622L185.838 56.2795C182.387 66.3547 176.414 70.8538 170.961 70.8538C168.161 70.8538 166.481 68.7389 166.118 67.8615C173.709 62.973 189.369 43.7774 186.015 27.917C185.255 24.3223 183.147 21.9885 180.332 21.2873C179.672 21.1227 178.994 21.0394 178.313 21.0394C174.947 21.0394 171.446 23.0053 168.183 26.7239C161.714 34.0993 156.248 49.3322 158.482 65.7717C155.441 67.8266 149.522 70.8558 143.132 70.8558C134.742 70.8558 133.696 66.3198 133.696 66.3198C133.696 66.3198 141.003 67.7705 147.262 63.9085C149.932 62.2622 153.115 58.7469 153.127 53.7016C153.133 51.1779 152.17 48.7686 150.488 47.0874C148.766 45.3675 146.384 44.4592 143.599 44.4592C136.259 44.4592 129.864 49.2334 127.303 56.6261C127.159 57.029 126.869 57.9916 126.735 58.4564C124.672 57.8754 122.099 56.3666 121.265 55.5144C122.113 52.0882 122.683 48.2631 122.731 45.2862H114.86C114.796 55.3924 110.629 64.9815 106.67 68.9519C105.41 70.2166 104.226 70.8577 103.153 70.8577C101.389 70.8577 100.294 69.5949 100.294 67.5632C100.294 62.9033 103.876 52.495 106.388 45.2862H98.6436C96.4075 51.2593 94.7722 56.5738 93.8175 60.9297C90.0316 67.1952 86.2964 70.8577 83.6441 70.8577C82.9636 70.8577 82.4561 70.6253 82.1333 70.1682C80.7858 68.2469 82.913 62.454 89.2325 45.2862H81.8455L80.4436 49.4735L79.8991 48.4993C78.7928 46.5141 75.738 44.4611 72.5453 44.4611C64.083 44.4611 57.6061 53.8197 56.2469 62.7638C54.6466 65.1713 50.5225 70.8577 47.3686 70.8577C45.9414 70.8577 45.0547 69.8487 45.0547 68.2217C45.0547 65.3456 47.7147 58.2182 52.9666 47.0274C49.1322 47.0274 41.4964 46.4909 37.9244 45.5612L38.64 42.3965H31.4708C29.4875 52.9036 23.1272 67.0519 17.0547 74.1658L22.8277 77.7934C26.5125 72.8158 32.1883 62.6147 36.048 51.604C38.1247 52.2664 41.7336 52.6751 43.4 52.7506C40.6077 58.7876 37.343 65.8569 37.343 70.4471C37.343 74.1038 39.5908 77.7934 44.6114 77.7934C48.9805 77.7934 53.5986 74.5667 56.3539 69.9687C57.1044 74.6016 61.8761 77.7934 65.8369 77.7934C72.8194 77.7934 75.985 70.8558 75.985 70.8558C75.8275 73.455 77.0797 77.3324 80.9841 77.743C86.4811 78.3221 90.9475 73.5925 92.8569 69.9687C93.5939 74.2781 96.845 77.7934 101.463 77.7934C104.895 77.7934 113.748 75.6029 119.476 61.1796C120.684 62.1964 123.07 63.7594 126.245 64.9486C127.384 73.7242 135.236 77.5145 142.044 77.7605C149.384 78.0258 156.236 74.803 160.697 71.7603C162.999 75.723 166.812 77.7624 170.438 77.7779C174.269 77.7953 177.633 76.3563 179.686 74.1697L171.49 98.0039H179.377L187.083 74.9308C188.203 75.6842 192.156 77.7953 199.451 77.7953C209.664 77.7953 217.241 70.7648 217.793 69.9707C218.688 74.9502 222.925 77.7953 227.677 77.7953C234.164 77.7953 237.424 70.8577 237.424 70.8577C236.917 73.7358 238.924 77.7953 243.059 77.7953C246.583 77.7953 249.801 75.9941 253.186 73.0347C256.006 75.814 260.888 77.7953 265.704 77.7953C270.184 77.7953 275.293 77.5126 281.484 72.628C284.216 75.6068 289.114 77.7953 293.771 77.7953C302.285 77.7953 306.962 71.032 307.038 64.6755C307.038 58.5591 302.979 50.2502 300.549 45.2862L300.555 45.2823ZM68.075 70.8538C65.4208 70.8538 63.7739 68.8008 63.7739 65.4967C63.7739 58.6327 67.7172 50.9823 73.3755 50.9823C75.4775 50.9823 77.6222 52.2742 78.8841 54.1122C75.4561 65.3805 71.9755 70.8538 68.075 70.8538ZM142.895 50.4051C145.273 50.4051 146.936 51.8868 146.936 54.0057C146.936 56.7423 142.345 62.3571 133.509 60.093C134.487 54.9005 138.594 50.4032 142.895 50.4032V50.4051ZM178.239 27.5045C183.013 29.0578 180.046 47.5464 164.566 60.9568C162.915 50.9823 171.152 25.1977 178.239 27.5045ZM202.36 65.2565C200.091 68.8725 197.163 70.8635 194.118 70.8635C191.073 70.8635 189.037 69.0894 189.037 69.0894C192.271 59.9303 195.294 50.9823 201.841 50.9823C204.011 50.9823 205.415 52.8261 205.415 55.679C205.415 58.532 204.217 62.299 202.36 65.2565ZM229.516 70.8538C226.862 70.8538 225.215 68.8008 225.215 65.4967C225.215 58.6327 229.159 50.9823 234.817 50.9823C236.919 50.9823 239.064 52.2742 240.326 54.1122C236.898 65.3805 233.417 70.8538 229.516 70.8538ZM263.801 70.8538C260.034 70.8538 257.376 68.336 257.376 68.336C257.376 68.336 262.965 61.2841 266.264 50.3374C267.779 53.3568 270.338 59.0103 270.338 63.8465C270.338 67.8208 268.092 70.8538 263.801 70.8538ZM292.464 70.8538C288.015 70.8538 285.882 68.123 285.882 68.123C285.882 68.123 291.774 61.1989 294.931 50.4264C296.613 53.7771 299.085 59.2931 299.085 63.9298C299.085 67.7666 296.765 70.8538 292.464 70.8538Z" fill="#FFFAF3"/>
<path d="M349.202 24.9111L334.001 16.7552C333.653 16.5674 333.367 16.2827 333.178 15.936L324.99 0.794083C324.417 -0.265345 322.89 -0.265345 322.317 0.794083L314.129 15.936C313.94 16.2827 313.654 16.5674 313.306 16.7552L298.106 24.9111C297.043 25.4824 297.043 27.0028 298.106 27.5742L313.306 35.73C313.654 35.9179 313.94 36.2026 314.129 36.5493L322.317 51.6912C322.89 52.7506 324.417 52.7506 324.99 51.6912L333.178 36.5493C333.367 36.2026 333.653 35.9179 334.001 35.73L349.202 27.5742C350.266 27.0028 350.266 25.4824 349.202 24.9111ZM338.417 26.7201L333.705 35.4337C333.517 35.7804 333.231 36.0651 332.883 36.253L324.135 40.9458C323.835 41.1066 323.474 41.1066 323.174 40.9458L314.426 36.253C314.078 36.0651 313.792 35.7804 313.604 35.4337L308.892 26.7201C308.731 26.4218 308.731 26.0615 308.892 25.7633L313.604 17.0496C313.792 16.7029 314.078 16.4182 314.426 16.2304L323.174 11.5375C323.474 11.3767 323.835 11.3767 324.135 11.5375L332.883 16.2304C333.231 16.4182 333.517 16.7029 333.705 17.0496L338.417 25.7633C338.578 26.0615 338.578 26.4218 338.417 26.7201Z" fill="#66D210"/>
</g>
<defs>
<clipPath id="clip0_2141_50">
<rect width="349" height="98" fill="white"/>
</clipPath>
</defs>
</svg>
